<svg width="32" height="43" viewBox="0 0 32 43" fill="none" xmlns="http://www.w3.org/2000/svg">
<path fill-rule="evenodd" clip-rule="evenodd" d="M0.678558 29.538C2.98464 13.7776 4.65149 6.86487 7.41271 5.09771C7.49214 6.74913 8.32114 8.16519 11.2904 9.57844C9.03485 12.7174 9.43623 16.6911 11.2404 20.2979C12.1628 21.1751 13.0805 22.0566 13.8683 23.0492C14.4657 23.8249 15.2516 24.3126 16.2106 24.5357C17.0589 24.3495 17.8136 23.93 18.4959 23.335C19.3464 22.3402 20.2352 21.4142 21.181 20.5908C22.2277 19.1391 22.8192 16.9735 22.7235 13.7304C22.7296 12.1771 22.2604 10.7102 21.0095 9.38545C23.1505 8.53298 24.8121 7.34286 24.8943 5.04053C28.1837 7.7751 29.8894 17.3771 30.8929 30.0239L31.3214 30.7672C23.8456 47.2556 7.06013 46.0402 0.92892 29.8495C0.897939 29.7677 0.714283 29.6183 0.678558 29.538ZM30.5391 30.1991L28.6948 30.1984C23.5181 43.0432 7.06654 41.4883 3.35627 29.7593L1.70293 29.6918C5.37934 40.6377 14.015 41.8286 16.0904 41.7943C18.5763 41.7532 27.2067 40.6605 30.5391 30.1991ZM28.1611 30.0705L28.116 29.9704L26.0522 15.4744L27.0948 29.9704L26.6952 30.1419C21.4736 37.2647 11.976 37.9337 6.33414 29.9704L4.7358 29.9176L5.4927 15.4744L3.62179 29.2699L3.83808 29.9704C6.28619 36.257 11.8709 38.6326 15.9903 38.6213C20.2036 38.6099 25.5571 36.4013 28.1611 30.0705ZM25.9473 29.9704H24.6311L23.5956 21.0712L23.8527 29.9704H23.546C19.3673 34.4616 13.3883 34.8278 9.11916 29.9809L8.47777 29.9821L8.8348 21.0712L7.64942 29.9704L6.95167 29.9849C8.59996 32.1266 12.3993 35.1738 16.5188 35.1626C20.7321 35.1511 24.7859 31.9135 25.9473 29.9704ZM22.6266 29.9704L20.7824 29.9697C17.8234 31.3156 14.9846 31.2696 12.2542 29.9665L10.0867 29.9704C11.735 32.1121 14.3292 32.8815 16.4046 32.8471C18.8906 32.806 21.4367 31.5418 22.6266 29.9704ZM12.5794 28.1337C15.1507 29.1889 17.9961 29.1832 20.8459 28.0992L20.83 29.2949C18.3666 30.5226 15.4046 30.5768 12.5794 29.5558V28.1337ZM12.7757 26.1792C15.7546 26.3559 18.4235 25.5832 20.7739 23.8352L20.7229 27.3797C18.2595 28.6074 15.601 28.6223 12.7757 27.6013V26.1792Z" fill="url(#paint0_linear_41_321)"/>
<path fill-rule="evenodd" clip-rule="evenodd" d="M16.3116 4.03011C15.9651 2.64383 14.9458 1.75036 13.3044 1.27877C15.2345 0.633902 17.2348 0.603908 19.3173 1.29309C17.5333 1.78698 16.6601 2.67635 16.3116 4.03011Z" fill="#E9BC47"/>
<path fill-rule="evenodd" clip-rule="evenodd" d="M9.49746 6.28812C6.7895 1.98493 16.0388 0.459603 13.9904 5.14368C12.6042 7.38019 14.3938 8.38371 16.311 9.08951V9.0629C18.2281 8.35718 20.0176 7.35365 18.6315 5.11714C16.583 0.432992 25.8323 1.95838 23.1244 6.2615C22.5301 7.04945 21.3618 7.77165 19.6969 8.36437C18.7527 8.70058 15.2683 9.41515 17.6471 10.5207C17.2722 10.5559 16.6668 10.5144 16.311 9.97758V10.0042C15.9551 10.541 15.3496 10.5825 14.9748 10.5474C17.3535 9.44176 13.8692 8.72712 12.9249 8.39098C11.26 7.79819 10.0918 7.07599 9.49746 6.28812Z" fill="#E9BC47"/>
<path fill-rule="evenodd" clip-rule="evenodd" d="M15.2476 6.26683C15.0242 6.17799 14.9294 6.20093 14.9155 6.0739L14.8263 4.95543C14.7851 4.85321 14.6925 4.84452 14.6227 4.95191C14.4298 5.3151 14.3301 5.72503 14.3657 6.20252C14.6128 6.94262 15.7596 6.50399 15.2476 6.26683Z" fill="#E9BC47"/>
<path fill-rule="evenodd" clip-rule="evenodd" d="M17.4397 6.26683C17.6631 6.17799 17.758 6.20093 17.7718 6.0739L17.861 4.95543C17.9022 4.85321 17.9948 4.84452 18.0645 4.95191C18.2575 5.3151 18.3572 5.72503 18.3217 6.20252C18.0745 6.94262 16.9277 6.50399 17.4397 6.26683Z" fill="#E9BC47"/>
<path fill-rule="evenodd" clip-rule="evenodd" d="M11.258 12.0346C10.9258 12.137 10.6856 12.299 10.5152 12.5062C11.2128 12.3562 11.9434 12.2412 12.6219 12.6456L14.7714 13.9641C14.8762 13.9978 14.9665 13.9733 15.0428 13.8927C15.0792 13.7684 15.0683 13.65 15.0285 13.5353C14.2131 12.9403 13.3826 12.439 12.529 12.0918C12.0758 11.9053 11.6541 11.897 11.258 12.0346Z" fill="#E9BC47"/>
<path fill-rule="evenodd" clip-rule="evenodd" d="M11.5853 14.5239L10.8784 13.9594L11.6281 14.2238C12.7805 13.6013 13.7142 14.2478 14.5561 14.917C14.4189 14.4379 14.0601 14.0143 13.542 13.6307C12.8355 13.1153 11.9753 12.9787 11.0211 13.0732C10.3316 13.1691 10.124 13.6839 10.2642 14.3238C10.6332 15.0943 11.279 15.6369 12.0995 15.8388C11.9543 15.6957 11.8782 15.5579 11.8567 15.4243C11.8162 15.1814 11.8376 14.9861 11.921 14.8383C12.0395 14.733 12.1857 14.7459 12.3423 14.8026C12.1955 16.1537 13.6212 16.2498 13.8348 15.1814L14.049 15.3672C14.1524 15.5074 14.198 15.732 14.1776 16.0533L14.7203 16.1747C14.7131 15.8711 14.673 15.5802 14.5418 15.3243C14.3091 14.9414 14.03 14.5944 13.5492 14.4025C12.7918 14.1424 12.2754 14.1717 11.5853 14.5239ZM13.342 14.7599C13.5096 14.7599 13.6456 14.8861 13.6456 15.0417C13.6456 15.1973 13.5096 15.3234 13.342 15.3234C13.1744 15.3234 13.0385 15.1973 13.0385 15.0417C13.0385 14.8861 13.1744 14.7599 13.342 14.7599Z" fill="#E9BC47"/>
<path fill-rule="evenodd" clip-rule="evenodd" d="M15.7817 21.0711C15.2276 20.9717 14.6673 20.9895 14.1036 21.0711C14.3865 20.2 15.5086 19.6465 16.3119 20.2419V20.2401C17.1152 19.6447 18.2372 20.1982 18.5202 21.0693C17.9565 20.9876 17.3962 20.9699 16.842 21.0693C16.6667 21.1752 16.5068 21.2305 16.3119 21.2567C16.117 21.2305 15.9385 21.2021 15.7817 21.0711Z" fill="#E9BC47"/>
<path fill-rule="evenodd" clip-rule="evenodd" d="M16.3122 22.4895C15.2739 22.5 14.5591 22.0858 14.1302 21.296C14.6543 21.2348 15.1713 21.2205 15.6764 21.2832C16.1002 21.4351 16.5147 21.4353 16.9188 21.2728C17.4331 21.2093 17.9411 21.1903 18.4364 21.2603C17.9917 22.1191 17.271 22.5073 16.3122 22.4895Z" fill="#E9BC47"/>
<path fill-rule="evenodd" clip-rule="evenodd" d="M15.8797 18.9808C15.8368 18.7296 15.3155 18.8856 15.0335 18.8379C15.1859 18.6359 15.3879 18.5193 15.7119 18.6128C15.8858 18.6699 15.9629 18.7809 15.8797 18.9808Z" fill="#E9BC47"/>
<path fill-rule="evenodd" clip-rule="evenodd" d="M16.6658 18.9808C16.7086 18.7296 17.23 18.8856 17.512 18.8379C17.3597 18.6359 17.1576 18.5193 16.8336 18.6128C16.6597 18.6699 16.5826 18.7809 16.6658 18.9808Z" fill="#E9BC47"/>
<path fill-rule="evenodd" clip-rule="evenodd" d="M21.335 11.9056C21.667 12.0081 21.9073 12.1701 22.0776 12.3774C21.3801 12.2274 20.6495 12.1122 19.971 12.5167L17.8215 13.8352C17.7167 13.869 17.6263 13.8444 17.5501 13.7637C17.5137 13.6394 17.5246 13.5212 17.5644 13.4064C18.3798 12.8113 19.2103 12.3102 20.0638 11.9628C20.517 11.7765 20.9388 11.7681 21.335 11.9056Z" fill="#E9BC47"/>
<path fill-rule="evenodd" clip-rule="evenodd" d="M21.0069 14.3965L21.7138 13.8319L20.9641 14.0964C19.8117 13.4739 18.878 14.1204 18.0361 14.7896C18.1734 14.3106 18.5321 13.887 19.0502 13.5032C19.7567 12.9879 20.6169 12.8513 21.571 12.9458C22.2606 13.0416 22.4682 13.5565 22.328 14.1964C21.959 14.9669 21.3133 15.5095 20.4927 15.7115C20.6379 15.5683 20.7141 15.4306 20.7356 15.2969C20.7759 15.054 20.7546 14.8587 20.6712 14.7109C20.5528 14.6056 20.4065 14.6185 20.2499 14.6752C20.3967 16.0264 18.971 16.1223 18.7574 15.054L18.5432 15.2398C18.4398 15.38 18.3942 15.6046 18.4146 15.9258L17.8719 16.0473C17.8791 15.7437 17.9193 15.4529 18.0504 15.1969C18.2831 14.814 18.5622 14.467 19.043 14.275C19.8004 14.0149 20.3168 14.0442 21.0069 14.3965ZM19.2502 14.6325C19.0826 14.6325 18.9467 14.7586 18.9467 14.9142C18.9467 15.0699 19.0826 15.196 19.2502 15.196C19.4178 15.196 19.5538 15.0699 19.5538 14.9142C19.5538 14.7586 19.4178 14.6325 19.2502 14.6325Z" fill="#E9BC47"/>
<defs>
<linearGradient id="paint0_linear_41_321" x1="31.3213" y1="42.576" x2="0.652221" y2="5.06193" gradientUnits="userSpaceOnUse">
<stop stop-color="#CA9000"/>
<stop offset="0.0196078" stop-color="#BB7F00"/>
<stop offset="0.0392157" stop-color="#AC6E00"/>
<stop offset="0.0509804" stop-color="#915900"/>
<stop offset="0.121569" stop-color="#B3872C"/>
<stop offset="0.25098" stop-color="#D6B659"/>
<stop offset="0.501961" stop-color="#FFF6AC"/>
<stop offset="0.678431" stop-color="#EBD683"/>
<stop offset="0.74902" stop-color="#D6B659"/>
<stop offset="0.870588" stop-color="#B4882D"/>
<stop offset="0.941176" stop-color="#915900"/>
<stop offset="0.94902" stop-color="#AC6E00"/>
<stop offset="1" stop-color="#CA9000"/>
</linearGradient>
</defs>
</svg>
