<svg width="32" height="43" viewBox="0 0 32 43" fill="none" xmlns="http://www.w3.org/2000/svg">
<path fill-rule="evenodd" clip-rule="evenodd" d="M0.678589 29.5382C2.98467 13.7778 4.65152 6.86507 7.41274 5.09791C7.49217 6.74933 8.32117 8.16539 11.2904 9.57864C9.03488 12.7176 9.43626 16.6913 11.2404 20.2981C12.1628 21.1753 13.0805 22.0568 13.8684 23.0494C14.4657 23.8251 15.2516 24.3128 16.2107 24.5359C17.0589 24.3497 17.8137 23.9302 18.4959 23.3352C19.3465 22.3404 20.2352 21.4144 21.181 20.591C22.2277 19.1393 22.8192 16.9737 22.7235 13.7306C22.7296 12.1773 22.2604 10.7103 21.0096 9.38565C23.1505 8.53318 24.8121 7.34306 24.8944 5.04073C28.1837 7.7753 29.8894 17.3773 30.893 30.0241L31.3214 30.7674C23.8456 47.2558 7.06017 46.0404 0.92895 29.8497C0.89797 29.7679 0.714314 29.6185 0.678589 29.5382ZM30.5392 30.1993L28.6948 30.1986C23.5181 43.0434 7.06657 41.4885 3.3563 29.7595L1.70296 29.692C5.37937 40.6379 14.0151 41.8288 16.0904 41.7945C18.5763 41.7534 27.2068 40.6607 30.5392 30.1993ZM28.1611 30.0707L28.1161 29.9706L26.0522 15.4746L27.0948 29.9706L26.6953 30.1421C21.4736 37.2649 11.976 37.9339 6.33417 29.9706L4.73583 29.9178L5.49273 15.4746L3.62182 29.2701L3.83811 29.9706C6.28622 36.2572 11.8709 38.6328 15.9903 38.6215C20.2036 38.6101 25.5572 36.4015 28.1611 30.0707ZM25.9473 29.9706H24.6311L23.5956 21.0714L23.8527 29.9706H23.546C19.3673 34.4618 13.3883 34.828 9.11919 29.9811L8.4778 29.9823L8.83483 21.0714L7.64945 29.9706L6.9517 29.9851C8.59999 32.1268 12.3993 35.174 16.5188 35.1628C20.7321 35.1512 24.7859 31.9136 25.9473 29.9706ZM22.6267 29.9706L20.7824 29.9699C17.8235 31.3158 14.9847 31.2698 12.2543 29.9667L10.0867 29.9706C11.735 32.1123 14.3292 32.8817 16.4046 32.8473C18.8906 32.8062 21.4367 31.542 22.6267 29.9706ZM12.5794 28.1339C15.1507 29.1891 17.9961 29.1834 20.846 28.0994L20.8301 29.2951C18.3667 30.5228 15.4047 30.577 12.5794 29.556V28.1339ZM12.7758 26.1794C15.7547 26.3561 18.4235 25.5834 20.7739 23.8354L20.723 27.3799C18.2596 28.6076 15.601 28.6225 12.7758 27.6015V26.1794Z" fill="url(#paint0_linear_48_338)"/>
<path fill-rule="evenodd" clip-rule="evenodd" d="M16.3116 4.03027C15.9651 2.64399 14.9458 1.75051 13.3044 1.27893C15.2345 0.634054 17.2348 0.60406 19.3173 1.29324C17.5333 1.78713 16.6601 2.6765 16.3116 4.03027Z" fill="#E9BC47"/>
<path fill-rule="evenodd" clip-rule="evenodd" d="M9.49743 6.28824C6.78947 1.98505 16.0388 0.459725 13.9903 5.1438C12.6042 7.38031 14.3937 8.38383 16.3109 9.08963V9.06302C18.2281 8.3573 20.0176 7.35377 18.6315 5.11726C16.583 0.433114 25.8323 1.95851 23.1244 6.26163C22.53 7.04957 21.3618 7.77177 19.6969 8.36449C18.7526 8.7007 15.2683 9.41527 17.647 10.5209C17.2722 10.556 16.6667 10.5145 16.3109 9.97771V10.0043C15.955 10.5411 15.3496 10.5826 14.9747 10.5475C17.3535 9.44188 13.8691 8.72724 12.9249 8.3911C11.26 7.79831 10.0917 7.07612 9.49743 6.28824Z" fill="#E9BC47"/>
<path fill-rule="evenodd" clip-rule="evenodd" d="M15.2477 6.26681C15.0243 6.17797 14.9295 6.20092 14.9156 6.07389L14.8264 4.95541C14.7852 4.8532 14.6926 4.8445 14.6228 4.9519C14.4299 5.31508 14.3302 5.72502 14.3658 6.2025C14.6129 6.94261 15.7597 6.50397 15.2477 6.26681Z" fill="#E9BC47"/>
<path fill-rule="evenodd" clip-rule="evenodd" d="M17.4397 6.26681C17.6631 6.17797 17.758 6.20092 17.7718 6.07389L17.8611 4.95541C17.9022 4.8532 17.9949 4.8445 18.0646 4.9519C18.2575 5.31508 18.3572 5.72502 18.3217 6.2025C18.0746 6.94261 16.9277 6.50397 17.4397 6.26681Z" fill="#E9BC47"/>
<path fill-rule="evenodd" clip-rule="evenodd" d="M11.258 12.0344C10.9258 12.1369 10.6856 12.2988 10.5153 12.5061C11.2129 12.3561 11.9434 12.241 12.6219 12.6454L14.7715 13.9639C14.8763 13.9977 14.9665 13.9731 15.0428 13.8925C15.0793 13.7682 15.0683 13.6499 15.0285 13.5351C14.2132 12.9401 13.3827 12.4389 12.5291 12.0916C12.0759 11.9052 11.6541 11.8969 11.258 12.0344Z" fill="#E9BC47"/>
<path fill-rule="evenodd" clip-rule="evenodd" d="M11.5854 14.5242L10.8784 13.9597L11.6282 14.2241C12.7805 13.6016 13.7143 14.248 14.5561 14.9173C14.4189 14.4382 14.0602 14.0146 13.542 13.6309C12.8356 13.1156 11.9753 12.979 11.0212 13.0735C10.3316 13.1694 10.124 13.6842 10.2643 14.3241C10.6333 15.0946 11.279 15.6372 12.0995 15.8391C11.9543 15.696 11.8782 15.5582 11.8567 15.4246C11.8163 15.1817 11.8377 14.9864 11.9211 14.8386C12.0395 14.7333 12.1858 14.7462 12.3424 14.8029C12.1956 16.154 13.6213 16.2501 13.8349 15.1817L14.0491 15.3675C14.1525 15.5077 14.1981 15.7323 14.1777 16.0535L14.7204 16.175C14.7131 15.8714 14.673 15.5805 14.5418 15.3246C14.3092 14.9417 14.03 14.5947 13.5492 14.4028C12.7919 14.1427 12.2754 14.1719 11.5854 14.5242ZM13.3421 14.7602C13.5097 14.7602 13.6456 14.8864 13.6456 15.042C13.6456 15.1976 13.5097 15.3237 13.3421 15.3237C13.1744 15.3237 13.0385 15.1976 13.0385 15.042C13.0385 14.8864 13.1744 14.7602 13.3421 14.7602Z" fill="#E9BC47"/>
<path fill-rule="evenodd" clip-rule="evenodd" d="M15.7818 21.0712C15.2276 20.9718 14.6673 20.9896 14.1036 21.0712C14.3866 20.2001 15.5086 19.6466 16.312 20.242V20.2402C17.1152 19.6448 18.2373 20.1983 18.5202 21.0694C17.9565 20.9877 17.3962 20.97 16.8421 21.0694C16.6668 21.1752 16.5068 21.2306 16.312 21.2567C16.117 21.2306 15.9385 21.2022 15.7818 21.0712Z" fill="#E9BC47"/>
<path fill-rule="evenodd" clip-rule="evenodd" d="M16.3122 22.4896C15.2739 22.5001 14.5591 22.0859 14.1302 21.2961C14.6543 21.2349 15.1713 21.2206 15.6764 21.2833C16.1002 21.4352 16.5147 21.4354 16.9189 21.2729C17.4332 21.2094 17.9412 21.1904 18.4364 21.2604C17.9918 22.1192 17.271 22.5073 16.3122 22.4896Z" fill="#E9BC47"/>
<path fill-rule="evenodd" clip-rule="evenodd" d="M15.8798 18.9807C15.8369 18.7295 15.3156 18.8855 15.0336 18.8378C15.186 18.6358 15.388 18.5192 15.712 18.6127C15.8859 18.6698 15.963 18.7807 15.8798 18.9807Z" fill="#E9BC47"/>
<path fill-rule="evenodd" clip-rule="evenodd" d="M16.6658 18.9807C16.7086 18.7295 17.23 18.8855 17.512 18.8378C17.3597 18.6358 17.1576 18.5192 16.8336 18.6127C16.6597 18.6698 16.5826 18.7807 16.6658 18.9807Z" fill="#E9BC47"/>
<path fill-rule="evenodd" clip-rule="evenodd" d="M21.335 11.9055C21.6671 12.008 21.9074 12.1699 22.0777 12.3772C21.3801 12.2272 20.6495 12.1121 19.971 12.5166L17.8215 13.8351C17.7167 13.8688 17.6264 13.8442 17.5502 13.7636C17.5137 13.6393 17.5247 13.521 17.5644 13.4063C18.3798 12.8112 19.2103 12.31 20.0638 11.9627C20.5171 11.7763 20.9389 11.768 21.335 11.9055Z" fill="#E9BC47"/>
<path fill-rule="evenodd" clip-rule="evenodd" d="M21.007 14.3964L21.7139 13.8318L20.9641 14.0962C19.8118 13.4738 18.8781 14.1202 18.0362 14.7894C18.1734 14.3104 18.5322 13.8868 19.0502 13.5031C19.7567 12.9877 20.617 12.8511 21.5711 12.9457C22.2607 13.0415 22.4683 13.5564 22.3281 14.1963C21.959 14.9667 21.3133 15.5094 20.4928 15.7113C20.638 15.5682 20.7141 15.4304 20.7356 15.2968C20.776 15.0538 20.7547 14.8585 20.6713 14.7108C20.5528 14.6055 20.4065 14.6184 20.25 14.675C20.3968 16.0262 18.9711 16.1222 18.7575 15.0538L18.5432 15.2396C18.4399 15.3798 18.3942 15.6044 18.4146 15.9257L17.8719 16.0472C17.8792 15.7435 17.9193 15.4527 18.0505 15.1968C18.2832 14.8139 18.5623 14.4668 19.0431 14.2749C19.8004 14.0148 20.3168 14.0441 21.007 14.3964ZM19.2503 14.6324C19.0826 14.6324 18.9467 14.7585 18.9467 14.9141C18.9467 15.0697 19.0826 15.1958 19.2503 15.1958C19.4179 15.1958 19.5538 15.0697 19.5538 14.9141C19.5538 14.7585 19.4179 14.6324 19.2503 14.6324Z" fill="#E9BC47"/>
<defs>
<linearGradient id="paint0_linear_48_338" x1="31.3214" y1="42.5762" x2="0.652251" y2="5.06213" gradientUnits="userSpaceOnUse">
<stop stop-color="#CA9000"/>
<stop offset="0.0196078" stop-color="#BB7F00"/>
<stop offset="0.0392157" stop-color="#AC6E00"/>
<stop offset="0.0509804" stop-color="#915900"/>
<stop offset="0.121569" stop-color="#B3872C"/>
<stop offset="0.25098" stop-color="#D6B659"/>
<stop offset="0.501961" stop-color="#FFF6AC"/>
<stop offset="0.678431" stop-color="#EBD683"/>
<stop offset="0.74902" stop-color="#D6B659"/>
<stop offset="0.870588" stop-color="#B4882D"/>
<stop offset="0.941176" stop-color="#915900"/>
<stop offset="0.94902" stop-color="#AC6E00"/>
<stop offset="1" stop-color="#CA9000"/>
</linearGradient>
</defs>
</svg>
