<svg width="98" height="98" viewBox="0 0 98 98" fill="none" xmlns="http://www.w3.org/2000/svg">
<g filter="url(#filter0_d_2256_2)">
<rect x="17" width="64" height="64" rx="12" fill="#2BE3A0"/>
</g>
<g clip-path="url(#clip0_2256_2)">
<path fill-rule="evenodd" clip-rule="evenodd" d="M31 45.2227H67.6333V18.5803H31V45.2227ZM35.9955 40.2273H62.6379V23.5758H35.9955V40.2273Z" fill="white"/>
<path fill-rule="evenodd" clip-rule="evenodd" d="M35.9948 27.7409H40.1601V23.5757H35.9948V27.7409Z" fill="white"/>
<path fill-rule="evenodd" clip-rule="evenodd" d="M58.4821 40.2273H62.6379V36.0715H58.4821V40.2273Z" fill="white"/>
<path fill-rule="evenodd" clip-rule="evenodd" d="M49.3158 34.3993C47.9387 34.3993 46.8181 33.2786 46.8181 31.9015C46.8181 30.5245 47.9387 29.4038 49.3158 29.4038C50.6929 29.4038 51.8135 30.5245 51.8135 31.9015C51.8135 33.2786 50.6929 34.3993 49.3158 34.3993Z" fill="white"/>
<path fill-rule="evenodd" clip-rule="evenodd" d="M49.3161 27.6694C46.9786 27.6694 45.084 29.564 45.084 31.9015C45.084 34.239 46.9786 36.1336 49.3161 36.1336C51.6536 36.1336 53.5481 34.239 53.5481 31.9015C53.5481 29.564 51.6536 27.6694 49.3161 27.6694Z" fill="white"/>
</g>
<defs>
<filter id="filter0_d_2256_2" x="0" y="0" width="98" height="98" filterUnits="userSpaceOnUse" color-interpolation-filters="sRGB">
<feFlood flood-opacity="0" result="BackgroundImageFix"/>
<feColorMatrix in="SourceAlpha" type="matrix" values="0 0 0 0 0 0 0 0 0 0 0 0 0 0 0 0 0 0 127 0" result="hardAlpha"/>
<feOffset dy="17"/>
<feGaussianBlur stdDeviation="8.5"/>
<feComposite in2="hardAlpha" operator="out"/>
<feColorMatrix type="matrix" values="0 0 0 0 0.168627 0 0 0 0 0.890196 0 0 0 0 0.627451 0 0 0 0.28 0"/>
<feBlend mode="normal" in2="BackgroundImageFix" result="effect1_dropShadow_2256_2"/>
<feBlend mode="normal" in="SourceGraphic" in2="effect1_dropShadow_2256_2" result="shape"/>
</filter>
<clipPath id="clip0_2256_2">
<rect width="36.6429" height="36.6429" fill="white" transform="translate(31 14)"/>
</clipPath>
</defs>
</svg>
