<svg width="51" height="65" viewBox="0 0 51 65" fill="none" xmlns="http://www.w3.org/2000/svg">
<path d="M25.4984 0.561707C18.8455 0.5696 12.4674 3.21593 7.76311 7.92021C3.05883 12.6245 0.412496 19.0026 0.404602 25.6555C0.404602 47.1268 23.2171 63.3451 24.1884 64.0246C24.5726 64.2928 25.0298 64.4367 25.4984 64.4367C25.9669 64.4367 26.4241 64.2928 26.8083 64.0246C27.7796 63.3451 50.5921 47.1268 50.5921 25.6555C50.5842 19.0026 47.9379 12.6245 43.2336 7.92021C38.5293 3.21593 32.1512 0.5696 25.4984 0.561707ZM25.5 16.5313C27.3048 16.5313 29.069 17.0665 30.5696 18.0691C32.0702 19.0718 33.2398 20.4969 33.9304 22.1643C34.6211 23.8317 34.8018 25.6664 34.4497 27.4365C34.0976 29.2066 33.2285 30.8325 31.9524 32.1086C30.6762 33.3848 29.0503 34.2539 27.2802 34.6059C25.5101 34.958 23.6754 34.7773 22.008 34.0867C20.3407 33.396 18.9155 32.2265 17.9129 30.7259C16.9102 29.2253 16.375 27.461 16.375 25.6563C16.375 24.458 16.611 23.2714 17.0696 22.1643C17.5281 21.0571 18.2003 20.0512 19.0476 19.2039C19.8949 18.3565 20.9009 17.6844 22.008 17.2258C23.1151 16.7672 24.3017 16.5312 25.5 16.5313Z" fill="white"/>
</svg>
