<svg width="73" height="73" viewBox="0 0 73 73" fill="none" xmlns="http://www.w3.org/2000/svg">
<g clip-path="url(#clip0_40_270)">
<path d="M36.4984 4.56171C29.8455 4.5696 23.4674 7.21593 18.7631 11.9202C14.0588 16.6245 11.4125 23.0026 11.4046 29.6555C11.4046 51.1268 34.2171 67.3451 35.1884 68.0246C35.5726 68.2928 36.0298 68.4367 36.4984 68.4367C36.9669 68.4367 37.4241 68.2928 37.8083 68.0246C38.7796 67.3451 61.5921 51.1268 61.5921 29.6555C61.5842 23.0026 58.9379 16.6245 54.2336 11.9202C49.5293 7.21593 43.1512 4.5696 36.4984 4.56171ZM36.5 20.5313C38.3048 20.5313 40.069 21.0665 41.5696 22.0691C43.0702 23.0718 44.2398 24.4969 44.9304 26.1643C45.6211 27.8317 45.8018 29.6664 45.4497 31.4365C45.0976 33.2066 44.2285 34.8325 42.9524 36.1086C41.6762 37.3848 40.0503 38.2539 38.2802 38.6059C36.5101 38.958 34.6754 38.7773 33.008 38.0867C31.3407 37.396 29.9155 36.2265 28.9129 34.7259C27.9102 33.2253 27.375 31.461 27.375 29.6563C27.375 28.458 27.611 27.2714 28.0696 26.1643C28.5281 25.0571 29.2003 24.0512 30.0476 23.2039C30.8949 22.3565 31.9009 21.6844 33.008 21.2258C34.1151 20.7672 35.3017 20.5312 36.5 20.5313Z" fill="white"/>
</g>
<defs>
<clipPath id="clip0_40_270">
<rect width="73" height="73" fill="white"/>
</clipPath>
</defs>
</svg>
