<svg width="51" height="65" viewBox="0 0 51 65" fill="none" xmlns="http://www.w3.org/2000/svg">
<path d="M25.4983 0.561707C18.8454 0.5696 12.4673 3.21593 7.76305 7.92021C3.05877 12.6245 0.412435 19.0026 0.404541 25.6555C0.404541 47.1268 23.217 63.3451 24.1884 64.0246C24.5725 64.2928 25.0297 64.4367 25.4983 64.4367C25.9668 64.4367 26.4241 64.2928 26.8082 64.0246C27.7795 63.3451 50.592 47.1268 50.592 25.6555C50.5841 19.0026 47.9378 12.6245 43.2335 7.92021C38.5293 3.21593 32.1511 0.5696 25.4983 0.561707ZM25.5 16.5313C27.3047 16.5313 29.0689 17.0665 30.5695 18.0691C32.0701 19.0718 33.2397 20.4969 33.9304 22.1643C34.621 23.8317 34.8017 25.6664 34.4496 27.4365C34.0975 29.2066 33.2285 30.8325 31.9523 32.1086C30.6762 33.3848 29.0502 34.2539 27.2802 34.6059C25.5101 34.958 23.6754 34.7773 22.008 34.0867C20.3406 33.396 18.9155 32.2265 17.9128 30.7259C16.9101 29.2253 16.375 27.461 16.375 25.6563C16.3749 24.458 16.6109 23.2714 17.0695 22.1643C17.5281 21.0571 18.2002 20.0512 19.0475 19.2039C19.8949 18.3565 20.9008 17.6844 22.0079 17.2258C23.115 16.7672 24.3016 16.5312 25.5 16.5313Z" fill="white"/>
</svg>
